<svg xmlns="http://www.w3.org/2000/svg" viewBox="0 0 479.92 213.16"><defs><style>.cls-1{fill:#f7af31;}</style></defs><g id="Layer_2" data-name="Layer 2"><g id="Layer_1-2" data-name="Layer 1"><path d="M39,126.59v45H28V153.09H11v18.55H0v-45H11v17.65H28V126.59Z"/><path d="M57.69,126.59v26.95a8.92,8.92,0,0,0,2,6.23A7.51,7.51,0,0,0,65.52,162a7.74,7.74,0,0,0,5.9-2.18,8.75,8.75,0,0,0,2-6.23V126.59h11v26.89a19.12,19.12,0,0,1-2.57,10.2A16.42,16.42,0,0,1,75,170a21.74,21.74,0,0,1-9.66,2.12A21.12,21.12,0,0,1,55.8,170a15.54,15.54,0,0,1-6.65-6.28,20.18,20.18,0,0,1-2.43-10.24V126.59Z"/><path d="M122.05,140.84a8.16,8.16,0,0,0-3.5-3.43,11.33,11.33,0,0,0-5.36-1.19,11,11,0,0,0-8.53,3.5q-3.21,3.5-3.21,9.33,0,6.22,3.37,9.72t9.27,3.5a11.21,11.21,0,0,0,6.84-2.05,11.61,11.61,0,0,0,4.07-5.91H111.08v-8.08H135v10.2a21.4,21.4,0,0,1-4.14,7.64,21.89,21.89,0,0,1-7.41,5.71A23,23,0,0,1,113.26,172a23.93,23.93,0,0,1-11.9-2.92,20.73,20.73,0,0,1-8.15-8.12,25.65,25.65,0,0,1,0-23.77,20.77,20.77,0,0,1,8.11-8.15,23.82,23.82,0,0,1,11.87-2.92A23,23,0,0,1,126.83,130a18.5,18.5,0,0,1,7.35,10.85Z"/><path d="M152,135.38v9.12h14.69V153H152v9.88h16.62v8.79H141v-45h27.6v8.79Z"/><path d="M240.38,126.59v45h-11v-27l-10.08,27h-8.85l-10.14-27.08v27.08h-11v-45h13L215,157.78l12.51-31.19Z"/><path d="M259.05,126.59v26.95a9,9,0,0,0,2,6.23,7.52,7.52,0,0,0,5.84,2.18,7.74,7.74,0,0,0,5.91-2.18,8.79,8.79,0,0,0,2-6.23V126.59h11v26.89a19,19,0,0,1-2.57,10.2,16.45,16.45,0,0,1-6.89,6.29,21.74,21.74,0,0,1-9.66,2.12,21.16,21.16,0,0,1-9.53-2.09,15.51,15.51,0,0,1-6.64-6.28,20.08,20.08,0,0,1-2.44-10.24V126.59Z"/><path d="M301,170.49a14.52,14.52,0,0,1-6.25-4.75,13,13,0,0,1-2.47-7.58h11.68a5.62,5.62,0,0,0,1.73,3.82,5.56,5.56,0,0,0,3.85,1.32,6,6,0,0,0,3.85-1.13,3.74,3.74,0,0,0,1.41-3.11,3.69,3.69,0,0,0-1.12-2.76,9.2,9.2,0,0,0-2.76-1.79,44.46,44.46,0,0,0-4.65-1.61,50.83,50.83,0,0,1-7.13-2.69,13.14,13.14,0,0,1-4.74-4,11.07,11.07,0,0,1-2-6.87,11.81,11.81,0,0,1,4.55-9.85q4.56-3.55,11.87-3.56t12,3.56a12.74,12.74,0,0,1,4.88,9.92H313.79a4.66,4.66,0,0,0-1.61-3.44,5.65,5.65,0,0,0-3.78-1.25,4.69,4.69,0,0,0-3.21,1.06,3.83,3.83,0,0,0-1.22,3,3.77,3.77,0,0,0,2,3.4,33.83,33.83,0,0,0,6.42,2.63,62,62,0,0,1,7.09,2.82,13.58,13.58,0,0,1,4.72,3.92,10.51,10.51,0,0,1,2,6.61,12.89,12.89,0,0,1-2,7,13.67,13.67,0,0,1-5.68,5,19.44,19.44,0,0,1-8.79,1.86A23.4,23.4,0,0,1,301,170.49Z"/><path d="M334,137.15a20.65,20.65,0,0,1,8.06-8.15,23.31,23.31,0,0,1,11.71-2.92,22.44,22.44,0,0,1,13.73,4.23,20.4,20.4,0,0,1,7.64,11.56H363.07a9.68,9.68,0,0,0-3.82-4.3,10.66,10.66,0,0,0-5.61-1.48,10.51,10.51,0,0,0-8.22,3.53q-3.14,3.52-3.14,9.43t3.14,9.44a10.5,10.5,0,0,0,8.22,3.52,10.75,10.75,0,0,0,5.61-1.47,9.73,9.73,0,0,0,3.82-4.3h12.07a20.2,20.2,0,0,1-7.64,11.52,22.55,22.55,0,0,1-13.73,4.2A23.31,23.31,0,0,1,342.06,169a20.7,20.7,0,0,1-8.06-8.12,25.88,25.88,0,0,1,0-23.77Z"/><path d="M392.85,163.17h14.37v8.47H381.87v-45h11Z"/><path d="M423.45,135.38v9.12h14.7V153h-14.7v9.88h16.62v8.79H412.48v-45h27.59v8.79Z"/><path d="M454.64,170.49a14.55,14.55,0,0,1-6.26-4.75,13,13,0,0,1-2.47-7.58h11.68a5.63,5.63,0,0,0,1.74,3.82,5.54,5.54,0,0,0,3.85,1.32,6,6,0,0,0,3.85-1.13,3.74,3.74,0,0,0,1.41-3.11,3.69,3.69,0,0,0-1.13-2.76,9,9,0,0,0-2.75-1.79,45.65,45.65,0,0,0-4.66-1.61,50.64,50.64,0,0,1-7.12-2.69,13.25,13.25,0,0,1-4.75-4,11.07,11.07,0,0,1-2-6.87,11.81,11.81,0,0,1,4.56-9.85q4.56-3.55,11.87-3.56t12,3.56a12.78,12.78,0,0,1,4.88,9.92H467.47a4.65,4.65,0,0,0-1.6-3.44,5.68,5.68,0,0,0-3.79-1.25,4.68,4.68,0,0,0-3.2,1.06,4.08,4.08,0,0,0,.83,6.45,33.83,33.83,0,0,0,6.42,2.63,62,62,0,0,1,7.09,2.82,13.45,13.45,0,0,1,4.71,3.92,10.45,10.45,0,0,1,2,6.61,13,13,0,0,1-1.95,7,13.73,13.73,0,0,1-5.68,5,19.44,19.44,0,0,1-8.79,1.86A23.36,23.36,0,0,1,454.64,170.49Z"/><path d="M125.35,208.44l-.13-7.56V189.94h2.28v22.79h-1.37L111.37,194.4l.07,6.74v11.59h-2.28V189.94h1.43Z"/><path d="M161.43,189.94v13.9c0,6.16-4,9.12-9,9.12s-9.12-3-9.12-9.12v-13.9h2.28v13.9a6.6,6.6,0,0,0,6.84,7c3.45,0,6.71-2.25,6.71-7v-13.9Z"/><path d="M182.67,192.09h-8v-2.15H193v2.15h-8v20.64h-2.28Z"/><path d="M225.14,212.73h-3l-7.55-8.4h-5.9v8.4h-2.28V189.94h10.23c5.08,0,7.52,3.38,7.55,7.23,0,3.55-2.05,6.77-6.87,7Zm-16.42-20.64v10.09h7.82c3.65,0,5.4-2.15,5.4-5s-1.75-5.08-5.27-5.08Z"/><path d="M239.27,212.73V189.94h2.28v22.79Z"/><path d="M263.05,192.09H255v-2.15h18.37v2.15h-8v20.64h-2.28Z"/><path d="M286.82,212.73V189.94h2.28v22.79Z"/><path d="M326.81,201.4c0,6-3.81,11.76-11.52,11.76s-11.57-5.8-11.57-11.79c0-6.42,4.17-11.82,11.57-11.82C323,189.58,326.85,195.31,326.81,201.4ZM315.29,211c6.22,0,9.21-4.72,9.25-9.61,0-5.11-3-9.67-9.25-9.71S305.94,196,306,201.4C306.07,206.38,309.06,211,315.29,211Z"/><path d="M357.62,208.44l-.13-7.56V189.94h2.28v22.79h-1.36L343.65,194.4l.07,6.74v11.59h-2.28V189.94h1.43Z"/><path class="cls-1" d="M198.37,43.48l10.69-1.62c3.44,5.58-1.2,10.09-1,15.38a29.17,29.17,0,0,1-4.55.88c-2.65.11-3.4,1.16-3,3.84,1.23,8.8,5,40,6.09,48.86.64,5.14-1.53,8.75-5.62,9.29-4.53.6-7.72-2.12-8.35-7.32-2.18-17.87-7.12-58.16-9.27-76-.8-6.67-1.66-13.34-2.41-20-.55-4.9,1.82-8.33,5.88-8.73,4.37-.43,7.46,2.3,8.08,7.19C196,24.47,197.16,33.75,198.37,43.48Z"/><path class="cls-1" d="M278.4,58.66l-9.91-2c.55-4.9,1.1-9.73,1.68-14.92l10,1.71c1.1-9.54,2-18.82,3.34-28a10.59,10.59,0,0,1,3.3-5.92,5.91,5.91,0,0,1,7.38-.38,7.15,7.15,0,0,1,3.33,7.41c-1.21,10.5-2.38,21-3.58,31.5-1.6,14.07-5.28,50.23-6.85,64.31-.38,3.49-1.6,6.34-5.22,7.42-5.37,1.6-9.61-2.35-8.94-8.29,1-8.95,4.11-40,5.14-48.92C278.23,61.36,278.28,60.18,278.4,58.66Z"/><path d="M223.84,60c.12,1.46.22,2.57.23,2.75,12.16.76,23.85,1.54,35.54,2.18a20.44,20.44,0,0,0,4.57-.82c-.29,2.84-.52,5.92-.94,9-.62,4.54-3.46,6.87-7.94,6.23a116.1,116.1,0,0,0-35.16-.11c-3.61.58-6.15-1.19-6.7-4.93-.92-6.28-1.55-12.63-2-19-.21-3.28,1.77-5.52,5.08-6,5.23-.68,10.5-1.21,15.76-1.58a5.34,5.34,0,0,1,6,5.27A5.72,5.72,0,0,1,233,59.17C230.08,59.51,227.11,59.69,223.84,60Z"/><path d="M185.65,82.67a6.49,6.49,0,0,1-5.73,7,6.63,6.63,0,0,1-7.21-6.06c-.79-5.82-1.35-11.67-2.05-17.5C169.13,53.42,167.55,40.68,166,28A12.7,12.7,0,0,1,166,24a6.23,6.23,0,0,1,6.67-4.8c3.38.17,5.52,2.21,6,6,1.52,12.13,3,24.27,4.45,36.4C184,68.62,184.82,75.64,185.65,82.67Z"/><path d="M293.08,82.67c1.71-14.87,3.44-30,5.18-45.12.46-4,.89-8.11,1.43-12.15.57-4.27,3.45-6.61,7.32-6.09,3.7.49,5.93,3.42,5.47,7.53q-3.14,28.23-6.41,56.45c-.5,4.32-3.36,6.84-7.11,6.53C295.45,89.53,292.94,86.59,293.08,82.67Z"/><path d="M241.52,44.33c0-2.88-.08-5.77,0-8.65.14-3.68,2.59-6.19,5.74-6.06a5.88,5.88,0,0,1,5.48,6.4q-.3,9.18-1,18.34c-.24,3.29-2.55,5.37-5.31,5.26a5.7,5.7,0,0,1-5.12-5.57c-.14-3.23,0-6.48,0-9.72Z"/><path d="M255.24,49.78c.27-4.18.52-8.36.82-12.53.27-3.63,2.1-5.67,5.11-5.77A5.47,5.47,0,0,1,267,37c-.39,6.79-1.16,13.57-2.12,20.3a4.42,4.42,0,0,1-5.15,4c-3.13-.37-4.51-2.61-4.78-5.43a41.5,41.5,0,0,1,.31-6.08Z"/><path d="M227.72,44c-.14-2.75-.4-5.6-.4-8.45a5.65,5.65,0,0,1,5.44-5.93,5.46,5.46,0,0,1,5.73,5.55c.15,3.66,0,7.34,0,10.37Z"/><path d="M224.29,44.82l-10.64,1.63c-.31-3.07-.76-6.12-.9-9.19-.16-3.65,2.12-6.19,5.38-6.34s5.41,1.82,5.75,5.51C224.13,39.15,224.16,41.9,224.29,44.82Z"/><path class="cls-1" d="M264.07,5.18a5.15,5.15,0,0,1-1.62,3.74l-19.14,18-.84.79a5,5,0,0,1-3.06,1h0A5.1,5.1,0,0,1,236,27.39L216.25,8.88A5.15,5.15,0,0,1,216,1.62,5.07,5.07,0,0,1,217.57.5a5,5,0,0,1,2.2-.5,5.17,5.17,0,0,1,2.75.8,6.06,6.06,0,0,1,.77.59l11,10.32,5.11,4.81,5.16-4.85L255.41,1.44a5.13,5.13,0,0,1,7.26.22h0A5.16,5.16,0,0,1,264.07,5.18Z"/></g></g></svg>